inDegrees=yes
name=ik_20250225_orientations
DataType=double
version=3
OpenSimVersion=4.5
endheader
time	pelvis_tilt	pelvis_list	pelvis_rotation	pelvis_tx	pelvis_ty	pelvis_tz	hip_flexion_r	hip_adduction_r	hip_rotation_r	knee_angle_r_beta	knee_angle_r	ankle_angle_r	subtalar_angle_r	mtp_angle_r	hip_flexion_l	hip_adduction_l	hip_rotation_l	knee_angle_l_beta	knee_angle_l	ankle_angle_l	subtalar_angle_l	mtp_angle_l	flex_extension	lat_bending	axial_rotation	L4_L5_IVDjnt_r3	L4_L5_IVD_bendjnt_r1	L4_L5_IVD_rotjnt_r2	L3_L4_IVDjnt_r3	L3_L4_IVD_bendjnt_r1	L3_L4_IVD_rotjnt_r2	L2_L3_IVDjnt_r3	L2_L3_IVD_bendjnt_r1	L2_L3_IVD_rotjnt_r2	L1_L2_IVDjnt_r3	L1_L2_IVD_bendjnt_r1	L1_L2_IVD_rotjnt_r2	Torso_Rot	Abs_r3	Abs_t1	Abs_t2	LB_wrapjnt_r3	LB_wrapjnt_t1	LB_wrapjnt_t2	arm_flex_r	arm_add_r	arm_rot_r	elbow_flex_r	pro_sup_r	wrist_flex_r	wrist_dev_r	arm_flex_l	arm_add_l	arm_rot_l	elbow_flex_l	pro_sup_l	wrist_flex_l	wrist_dev_l
9.750000000000071	2.033231354186102	-5.642336013874474	87.79999710192777	0	5.965334408854792e-09	0	19.23490941851724	7.452690147225614	1.321337224309616	0.4081128237108458	-23.38314236379806	10.22535509053641	0	0	20.66465326744913	-4.479336515472855	1.28251251590879	0.9526219557182789	-54.58121753415578	12.277770046189	0	0	-5.01533884865928e-08	0.03014668353716158	0.2112382502556347	-4.137951583528967e-07	0.3127852009431295	0.5110188854408949	-5.883506228955822e-07	0.4237548476911843	0.5110188854408949	-7.086759330741298e-07	0.4320406943475316	0.4034348267092691	-1.475422413176285e-08	0.3246230935878188	0.3496443383532641	2.488928315777443	-1.847300152762446e-06	0	0	-1.72414649313707e-06	-1.858337294569109e-09	-6.194457648563698e-10	7.873698012009451	-11.29595247916614	16.01910751226927	24.40029197762825	60.03824385352939	0	0	-1.064041931694222	-11.88927817666972	11.3125327901854	38.19774199901541	68.10516259493406	0	0
9.775000000000071	1.86640777210009	-5.853132254586677	87.93150427674635	-4.72828185251228e-38	5.965334408854792e-09	-2.037916069659796e-36	18.15168323706673	7.188732514632589	1.121296016667185	0.3871492431739007	-22.18201767554851	10.21462801310876	7.584332431196499e-30	1.129684143157212e-30	23.35149480241023	-4.098122281592936	1.808220785956699	0.9694797631626085	-55.54709875256009	12.40222542104082	1.213824231963794e-30	-1.041406017196209e-30	-5.01533884865928e-08	0.02417630345540427	0.2410966415347261	-4.137951583528967e-07	0.2508398618720065	0.5832510773570576	-5.883506228955822e-07	0.3398325980319524	0.5832510773570576	-7.086759330741298e-07	0.3464774796456062	0.4604600808804248	-1.475422413176285e-08	0.2603333268661807	0.399066341472665	2.84073673791765	-1.847300152762446e-06	-8.084692794673044e-32	4.2851941262616e-32	-1.72414649313707e-06	-1.858337294569109e-09	-6.194457648563698e-10	10.09805179848355	-11.39612364834782	15.34242450366276	29.4314659665257	60.23859494914573	-1.652456170332528e-30	-5.503589415381292e-31	-3.202288803748584	-11.65954554529869	9.141437476877261	32.64478233985301	69.39188912554189	-1.707629999058155e-30	2.083501707251489e-30
9.800000000000072	1.721559860292517	-6.098283531816587	88.11434181386254	0	5.965334408854792e-09	0	17.0679563856168	6.857107918991987	0.7237898291620131	0.362834692809001	-20.78889655888148	10.08140626076591	0	0	25.81063761607155	-3.537571595592483	2.559876455743219	0.9626559040826802	-55.15612042728817	12.37667300191618	0	0	-5.015338848659281e-08	0.01880823644434763	0.263461492787631	-4.137951583528968e-07	0.19514378781929	0.6373552054990015	-5.883506228955823e-07	0.2643767219034093	0.6373552054990015	-7.086759330741299e-07	0.2695461848349476	0.5031737460365941	-1.475422413176285e-08	0.2025293393208227	0.4360849382903714	3.104252041107967	-1.847300152762447e-06	0	0	-1.72414649313707e-06	-1.858337294569109e-09	-6.194457648563698e-10	12.02340942383464	-11.51789957516612	14.43268689248828	34.90117243876853	60.36632147852531	0	0	-5.888215118966656	-11.59338808077598	6.441960875938145	28.19314129824248	70.10728496505497	0	0
9.825000000000072	1.622956114552843	-6.359503784779576	88.41812277175524	-1.476455964371859e-37	5.965334408854792e-09	-3.389465211087147e-36	15.8144742457488	6.503585647705392	0.2031200853251894	0.3308909196268137	-18.95865317381896	9.715653382490249	1.558807561817944e-25	1.107183979933758e-26	27.91814385071005	-2.653597597393984	3.484681379218581	0.9360564895224978	-53.63208623547089	12.34478582895913	-2.307915531308246e-26	-1.675758698960225e-26	-5.01533884865928e-08	0.01423048753247164	0.2821074227012443	-4.137951583528967e-07	0.1476476142682821	0.6824626721199031	-5.883506228955822e-07	0.2000298994567798	0.6824626721199031	-7.086759330741298e-07	0.2039411634402198	0.5387848036666792	-1.475422413176285e-08	0.1532355915820498	0.4669479274494702	3.323948913619605	-1.847300152762446e-06	-6.545479953469043e-29	-1.656922790510032e-28	-1.72414649313707e-06	-1.858337294569109e-09	-6.194457648563698e-10	13.73948050165093	-11.86315200478638	13.55380495075098	40.60622167722561	59.89226663935237	-1.318654506542485e-30	5.044956964099517e-31	-8.544837344417276	-11.8426313523754	4.407801875723693	24.62553616226685	69.8533385121932	2.620756864467282e-31	-7.034663162517441e-32
9.850000000000072	1.543343986523005	-6.664588030768123	88.70498313995591	0	5.965334408854792e-09	0	14.48128564346848	6.130645812783702	-0.2125363007498048	0.2941668496457033	-16.85451895735826	9.200000525086795	0	0	29.53235983404368	-1.47845143345638	4.409240003506941	0.8884805601696891	-50.90618627714238	12.17684915482078	0	0	-5.015338848659281e-08	0.01029772661675588	0.3009942238762582	-4.137951583528967e-07	0.1068434769983547	0.7281528445878128	-5.883506228955823e-07	0.1447493077860368	0.7281528445878128	-7.086759330741299e-07	0.1475796484286563	0.574855890933844	-1.475422413176285e-08	0.110887151720427	0.4982096098978707	3.546483867313187	-1.847300152762446e-06	0	0	-1.72414649313707e-06	-1.858337294569109e-09	-6.194457648563698e-10	15.58411126894293	-12.37340326818749	12.95933884746115	46.09308519628924	58.73015047306092	0	0	-10.52871782076022	-12.00312723831589	2.535638828293826	21.04366615071595	69.87992368244012	0	0
9.875000000000073	1.474725003014052	-6.933584845751504	88.97506488958264	2.588084681585462e-37	5.965334408854792e-09	-2.228325446419353e-36	13.08036633228199	5.807767448052206	-0.4687003465403963	0.2564607055700227	-14.69411604010954	8.714078917701862	-1.151753674647463e-31	-1.268998060689421e-31	30.68178879797947	-0.1038618994378755	5.229819114032384	0.8231842011959358	-47.16498049037514	11.67156338343946	1.572454118680369e-31	6.758794018889306e-32	-5.01533884865928e-08	0.006937589528253321	0.3193081108813947	-4.137951583528967e-07	0.07198056568911557	0.7724570466635714	-5.883506228955822e-07	0.09751776477385975	0.7724570466635714	-7.086759330741298e-07	0.09942456831743823	0.6098327941289284	-1.475422413176285e-08	0.0747047937106541	0.5285229972547448	3.762268422827497	-1.847300152762446e-06	-3.370377402677663e-34	2.214819436045321e-33	-1.72414649313707e-06	-1.858337294569109e-09	-6.194457648563698e-10	17.02193803209882	-12.7882363130881	11.76967051967604	51.49551696473257	58.2476773886309	3.310429723537619e-32	-1.063820385115995e-31	-12.73518057828404	-12.33364990284372	0.3905222042144873	18.37957722781166	70.93477958267192	5.931186588004901e-32	-6.965695876610407e-32
9.900000000000073	1.336311473857546	-7.147893363334639	89.13927511825796	-1.423093204494764e-42	5.965334408854792e-09	1.27555835961803e-41	11.6213828855153	5.454268700815724	-0.5174733211029885	0.2190732467957094	-12.55197244562203	8.240673788493091	-9.907390902569495e-26	-7.934262784468762e-27	31.52301859920969	1.508564939588048	5.73743545828439	0.7460787560631921	-42.74716390679139	10.7459202624961	1.06563760413236e-26	-9.083778608623113e-26	-5.01533884865928e-08	0.003005378006792811	0.340074236630555	-4.137951583528967e-07	0.03118212862804446	0.8226936038326406	-5.883506228955822e-07	0.04224489562684365	0.8226936038326406	-7.086759330741298e-07	0.04307092683117211	0.6494931223739163	-1.475422413176285e-08	0.03236226979207226	0.5628953625292114	4.006946639597102	-1.847300152762446e-06	4.65595592300587e-28	3.538606901837402e-28	-1.72414649313707e-06	-1.858337294569109e-09	-6.194457648563698e-10	18.21961130829399	-12.9887174918673	10.15318617866078	56.55496723730048	58.26146045819547	1.853840645181067e-30	1.82073634794569e-30	-14.9322687989995	-12.7722145974591	-1.283387172811074	16.64652052201038	71.87198927885069	-1.747631024884235e-30	-3.726992130416102e-30
9.925000000000074	1.141715337696174	-7.375196908537184	89.2316051231083	-1.306133170930617e-62	5.965334408854792e-09	-1.680890035432705e-35	10.17924001355502	4.988230864374599	-0.6358235636622884	0.1806581983482508	-10.35095229979207	7.738113809911858	-1.260316762195501e-25	-1.037392672894707e-26	32.04212988586992	3.204695086124044	6.061425506317189	0.6617701912826958	-37.91663896806365	9.725989190737339	3.488429874557375e-26	-3.153733163675923e-25	-5.01533884865928e-08	-0.000361110734596068	0.3603223228595906	-4.137951583528967e-07	-0.003746683894570189	0.8716769411048965	-5.883506228955822e-07	-0.005075928970754961	0.8716769411048965	-7.086759330741298e-07	-0.005175180623728696	0.688164069274488	-1.475422413176285e-08	-0.003888483575577401	0.5964102619562963	4.24552102228945	-1.847300152762446e-06	-3.762762908891749e-29	-5.888026452059787e-29	-1.72414649313707e-06	-1.858337294569109e-09	-6.194457648563698e-10	19.35278903568526	-13.32235857011479	8.78222470396353	61.01517500759788	58.33458279383952	-3.627679238709974e-31	2.203504784729728e-31	-16.591060427323	-13.04851854335723	-2.595029879147914	15.20043134781243	72.18152913345014	-5.517382872562698e-32	2.303507349294927e-31
9.950000000000074	0.9717625539240974	-7.453865675910624	89.24648777639518	-1.082781476871257e-73	5.965334408854792e-09	-2.024637506966762e-37	8.470420429479983	4.522115734114183	-0.9170131916974897	0.138593789083975	-7.940839181238069	7.102562249429988	-5.621697547711949e-26	5.206604557827e-27	31.91226289597094	4.744045571386334	6.213067780875468	0.5728843202946536	-32.82385370210451	8.68287744164221	7.968324347632527e-27	1.358702816339782e-25	-5.01533884865928e-08	-0.003402294050381701	0.3819107765818286	-4.137951583528967e-07	-0.0353003084702325	0.9239028402788371	-5.883506228955822e-07	-0.04782411953682804	0.9239028402788371	-7.086759330741298e-07	-0.04875924351975213	0.7293949262609103	-1.475422413176285e-08	-0.03663630921686291	0.6321437553394654	4.499888371470311	-1.847300152762446e-06	1.083798599313513e-28	-3.310180536335895e-28	-1.72414649313707e-06	-1.858337294569109e-09	-6.194457648563698e-10	20.19525422881334	-13.60935198745806	7.469076455255654	64.69249197462045	58.45236580133241	2.089708762983122e-30	0	-18.24122403329226	-13.24341261163814	-4.038666661406216	14.32793457035501	72.39109227884643	2.945937617518946e-30	-1.204513648366344e-30
